HIERARCHY
ROOT Hips
{
	OFFSET 0.00000 0.00000 0.00000
	CHANNELS 6 Xposition Yposition Zposition Zrotation Yrotation Xrotation 
	JOINT LHipJoint
	{
		OFFSET 0 0 0
		CHANNELS 3 Zrotation Yrotation Xrotation
		JOINT LeftUpLeg
		{
			OFFSET 2.36090 -1.39315 1.24752
			CHANNELS 3 Zrotation Yrotation Xrotation
			JOINT LeftLeg
			{
				OFFSET 2.06810 -5.68207 0.00000
				CHANNELS 3 Zrotation Yrotation Xrotation
				JOINT LeftFoot
				{
					OFFSET 2.46631 -6.77613 0.00000
					CHANNELS 3 Zrotation Yrotation Xrotation
					JOINT LeftToeBase
					{
						OFFSET 0.26031 -0.71520 1.99545
						CHANNELS 3 Zrotation Yrotation Xrotation
						End Site
						{
							OFFSET 0.00000 -0.00000 1.05957
						}
					}
				}
			}
		}
	}
	JOINT RHipJoint
	{
		OFFSET 0 0 0
		CHANNELS 3 Zrotation Yrotation Xrotation
		JOINT RightUpLeg
		{
			OFFSET -2.25243 -1.39315 1.24752
			CHANNELS 3 Zrotation Yrotation Xrotation
			JOINT RightLeg
			{
				OFFSET -2.17343 -5.97145 0.00000
				CHANNELS 3 Zrotation Yrotation Xrotation
				JOINT RightFoot
				{
					OFFSET -2.52372 -6.93386 0.00000
					CHANNELS 3 Zrotation Yrotation Xrotation
					JOINT RightToeBase
					{
						OFFSET -0.22538 -0.61923 2.11447
						CHANNELS 3 Zrotation Yrotation Xrotation
						End Site
						{
							OFFSET -0.00000 -0.00000 1.10506
						}
					}
				}
			}
		}
	}
	JOINT LowerBack
	{
		OFFSET 0 0 0
		CHANNELS 3 Zrotation Yrotation Xrotation
		JOINT Spine
		{
			OFFSET 0.01594 2.13103 0.08007
			CHANNELS 3 Zrotation Yrotation Xrotation
			JOINT Spine1
			{
				OFFSET 0.01393 2.09723 0.18338
				CHANNELS 3 Zrotation Yrotation Xrotation
				JOINT Neck
				{
					OFFSET 0 0 0
					CHANNELS 3 Zrotation Yrotation Xrotation
					JOINT Neck1
					{
						OFFSET 0.05351 1.38915 0.32494
						CHANNELS 3 Zrotation Yrotation Xrotation
						JOINT Head
						{
							OFFSET 0.00711 1.45992 -0.21666
							CHANNELS 3 Zrotation Yrotation Xrotation
							End Site
							{
								OFFSET -0.00433 1.47702 -0.11056
							}
						}
					}
				}
				JOINT LeftShoulder
				{
					OFFSET 0 0 0
					CHANNELS 3 Zrotation Yrotation Xrotation
					JOINT LeftArm
					{
						OFFSET 2.87198 0.92249 0.11132
						CHANNELS 3 Zrotation Yrotation Xrotation
						JOINT LeftForeArm
						{
							OFFSET 5.52731 -0.00000 0.00000
							CHANNELS 3 Zrotation Yrotation Xrotation
							JOINT LeftHand
							{
								OFFSET 3.11059 -0.00000 0.00000
								CHANNELS 3 Zrotation Yrotation Xrotation
								JOINT LeftFingerBase
								{
									OFFSET 0 0 0
									CHANNELS 3 Zrotation Yrotation Xrotation
									JOINT LeftHandIndex1
									{
										OFFSET 0.41963 -0.00000 0.00000
										CHANNELS 3 Zrotation Yrotation Xrotation
										End Site
										{
											OFFSET 0.33831 -0.00000 0.00000
										}
									}
								}
								JOINT LThumb
								{
									OFFSET 0 0 0
									CHANNELS 3 Zrotation Yrotation Xrotation
									End Site
									{
										OFFSET 0.34348 -0.00000 0.34348
									}
								}
							}
						}
					}
				}
				JOINT RightShoulder
				{
					OFFSET 0 0 0
					CHANNELS 3 Zrotation Yrotation Xrotation
					JOINT RightArm
					{
						OFFSET -2.94710 0.68072 0.32187
						CHANNELS 3 Zrotation Yrotation Xrotation
						JOINT RightForeArm
						{
							OFFSET -5.25396 -0.00000 -0.00000
							CHANNELS 3 Zrotation Yrotation Xrotation
							JOINT RightHand
							{
								OFFSET -3.10567 -0.00000 0.00000
								CHANNELS 3 Zrotation Yrotation Xrotation
								JOINT RightFingerBase
								{
									OFFSET 0 0 0
									CHANNELS 3 Zrotation Yrotation Xrotation
									JOINT RightHandIndex1
									{
										OFFSET -0.49868 -0.00000 0.00000
										CHANNELS 3 Zrotation Yrotation Xrotation
										End Site
										{
											OFFSET -0.40204 -0.00000 0.00000
										}
									}
								}
								JOINT RThumb
								{
									OFFSET 0 0 0
									CHANNELS 3 Zrotation Yrotation Xrotation
									End Site
									{
										OFFSET -0.40818 -0.00000 0.40818
									}
								}
							}
						}
					}
				}
			}
		}
	}
}
MOTION
Frames: 7
Frame Time: .0083333
2.5618 15.4951 32.3957 -125.5520 -86.8575 146.3360 0.0000 0.0000 0.0000 -19.7832 -21.5097 -21.2240 0.8113 5.7478 16.0544 0.0276 6.7917 -10.3325 0.0945 -1.9829 -5.4583 0.0000 0.0000 0.0000 20.6234 29.5495 -26.6052 -3.2963 -11.1600 32.8213 -0.3613 -12.2324 -21.4927 -0.0382 -1.2611 3.4676 -0.3405 0.2747 -22.6855 0.8953 -0.2207 -7.6838 1.0810 -0.3539 4.2511 1.1725 -0.0456 -23.7861 6.9134 -2.9642 25.5078 1.9081 -0.3440 12.5655 0.0000 -0.0000 0.0000 -78.3997 7.0031 69.2507 16.1708 -25.7517 -3.7199 -0.0000 0.0000 -40.3055 12.6236 17.7450 3.9049 -7.1250 0.0000 -0.0000 -14.7357 47.5781 -0.9571 0.0000 -0.0000 0.0000 84.0407 -8.3262 21.4126 -8.3555 14.1275 -1.0372 0.0000 -0.0000 -21.6087 7.4860 -38.8357 -4.7106 7.1250 -0.0000 -0.0000 50.2129 -61.5699 -23.4127
2.5801 15.4908 32.3941 -123.9820 -86.9319 144.8920 0.0000 0.0000 0.0000 -19.7094 -21.4901 -21.7201 0.8483 5.8745 16.4206 0.0428 6.5363 -10.3349 0.1014 -2.0532 -5.6526 0.0000 0.0000 0.0000 20.5242 29.4576 -27.0802 -3.3590 -11.2547 33.1436 -0.3735 -12.1269 -21.4951 -0.0367 -1.2366 3.4001 -0.5134 0.1992 -22.4969 0.8901 -0.2774 -7.6992 1.1599 -0.3785 4.1407 1.2539 -0.0479 -24.0748 7.2422 -3.0758 25.1448 1.9962 -0.3406 12.4921 0.0000 -0.0000 0.0000 -78.2183 6.5625 70.0654 16.4095 -26.0728 -3.8242 -0.0000 0.0000 -39.8520 12.2865 18.3414 3.9205 -7.1250 0.0000 -0.0000 -15.2621 48.1155 -1.1992 0.0000 -0.0000 0.0000 84.0182 -7.9225 21.6088 -8.4750 14.3198 -1.0665 0.0000 -0.0000 -21.0906 8.6804 -38.3074 -5.4062 7.1250 -0.0000 -0.0000 50.5865 -60.9101 -22.8488
2.6012 15.4857 32.3918 -122.6510 -87.0181 143.7070 0.0000 0.0000 0.0000 -19.6473 -21.4651 -22.2668 0.8884 6.0080 16.8078 0.0583 6.2611 -10.3298 0.1093 -2.1314 -5.8691 0.0000 0.0000 0.0000 20.3861 29.3519 -27.6411 -3.4347 -11.3675 33.5295 -0.3902 -11.9754 -21.4906 -0.0353 -1.2125 3.3336 -0.7468 0.0874 -22.2854 0.9184 -0.3718 -7.7224 1.3002 -0.4206 4.0115 1.3293 -0.0288 -24.3522 7.5758 -3.1514 24.7455 2.0921 -0.3230 12.4016 0.0000 -0.0000 0.0000 -78.1029 6.1158 70.7019 16.6463 -26.3891 -3.9288 -0.0000 0.0000 -39.1576 11.8873 18.8556 3.8919 -7.1250 0.0000 -0.0000 -15.8258 48.5603 -1.4227 0.0000 -0.0000 0.0000 83.9179 -7.4847 21.9261 -8.6367 14.5796 -1.1069 0.0000 -0.0000 -20.4986 9.3837 -37.7894 -5.7822 7.1250 -0.0000 -0.0000 50.5500 -60.3852 -22.1917
2.6233 15.4791 32.3885 -121.7430 -87.0982 142.9340 0.0000 0.0000 0.0000 -19.5968 -21.4396 -22.8195 0.9327 6.1519 17.2257 0.0738 5.9973 -10.3468 0.1172 -2.2071 -6.0783 0.0000 0.0000 0.0000 20.2413 29.2191 -28.2471 -3.5245 -11.4992 33.9827 -0.4122 -11.7656 -21.4767 -0.0333 -1.1783 3.2396 -1.0249 -0.0468 -22.0415 0.9752 -0.4885 -7.7420 1.4916 -0.4723 3.8716 1.4214 0.0130 -24.6087 7.8974 -3.1921 24.3077 2.1852 -0.2925 12.2904 0.0000 -0.0000 0.0000 -78.0386 5.6688 71.1747 16.8865 -26.7079 -4.0362 -0.0000 0.0000 -38.2301 11.3694 19.2344 3.7899 -7.1250 0.0000 -0.0000 -16.4555 48.8533 -1.6036 0.0000 -0.0000 0.0000 83.7743 -6.9883 22.1087 -8.8195 14.8723 -1.1533 0.0000 -0.0000 -19.5813 10.0617 -37.3846 -6.1490 7.1250 -0.0000 -0.0000 50.6459 -59.9450 -21.7083
2.6458 15.4706 32.3848 -121.5210 -87.1627 142.8120 0.0000 0.0000 0.0000 -19.5643 -21.4164 -23.3458 0.9821 6.3080 17.6807 0.0887 5.7723 -10.4041 0.1248 -2.2771 -6.2720 0.0000 0.0000 0.0000 20.0986 29.0678 -28.8665 -3.6296 -11.6505 34.5066 -0.4428 -11.4754 -21.4640 -0.0324 -1.1626 3.1962 -1.3314 -0.1895 -21.7534 1.0471 -0.6117 -7.7517 1.7147 -0.5257 3.7214 1.5130 0.0742 -24.8449 8.2400 -3.2074 23.8374 2.2894 -0.2505 12.1630 0.0000 -0.0000 0.0000 -77.9961 5.2240 71.5270 17.1430 -27.0460 -4.1522 -0.0000 0.0000 -37.1319 10.7540 19.5034 3.6283 -7.1250 0.0000 -0.0000 -17.1371 49.0234 -1.7471 0.0000 -0.0000 0.0000 83.5572 -6.4861 22.5906 -9.0618 15.2588 -1.2163 0.0000 -0.0000 -18.7816 10.4455 -37.1379 -6.3510 7.1250 -0.0000 -0.0000 50.6823 -59.6848 -21.4080
2.6680 15.4599 32.3808 -122.0350 -87.2153 143.3880 0.0000 0.0000 0.0000 -19.5524 -21.4098 -23.8406 1.0376 6.4787 18.1800 0.1031 5.5961 -10.5082 0.1312 -2.3350 -6.4325 0.0000 0.0000 0.0000 19.9584 28.8783 -29.5016 -3.7507 -11.8210 35.1017 -0.4810 -11.0986 -21.4401 -0.0317 -1.1486 3.1576 -1.6595 -0.3305 -21.4219 1.1207 -0.7292 -7.7497 1.9540 -0.5749 3.5628 1.6222 0.1486 -25.0654 8.5956 -3.2116 23.3409 2.3959 -0.2031 12.0231 -0.0000 -0.0000 0.0000 -77.9515 4.7766 71.7979 17.4289 -27.4197 -4.2830 -0.0000 0.0000 -35.9400 10.0551 19.6986 3.4205 -7.1250 0.0000 -0.0000 -17.8682 49.1084 -1.8644 -0.0000 -0.0000 0.0000 83.3018 -5.9623 23.1390 -9.3437 15.7065 -1.2916 0.0000 -0.0000 -17.8545 11.1791 -37.0677 -6.7931 7.1250 -0.0000 -0.0000 51.2435 -59.4609 -21.4466
2.6905 15.4474 32.3764 -123.2300 -87.2494 144.6050 0.0000 0.0000 0.0000 -19.5581 -21.3830 -24.3140 1.0994 6.6627 18.7198 0.1185 5.4341 -10.6496 0.1367 -2.3830 -6.5653 0.0000 0.0000 0.0000 19.8249 28.6661 -30.1489 -3.8889 -12.0111 35.7712 -0.5276 -10.6266 -21.4122 -0.0326 -1.1646 3.2019 -1.9869 -0.4462 -21.0378 1.1656 -0.8140 -7.7411 2.1711 -0.6070 3.3834 1.7547 0.2286 -25.2817 8.9951 -3.2313 22.8414 2.5116 -0.1572 11.8847 0.0000 -0.0000 0.0000 -77.8401 4.3285 72.0594 17.7645 -27.8545 -4.4386 -0.0000 0.0000 -34.7485 9.2673 19.8308 3.1684 -7.1250 0.0000 -0.0000 -18.6558 49.1191 -1.9569 0.0000 -0.0000 0.0000 83.0604 -5.4487 23.7933 -9.6750 16.2297 -1.3827 0.0000 -0.0000 -16.8923 11.7183 -37.1525 -7.1403 7.1250 -0.0000 -0.0000 51.8198 -59.3886 -21.6826
